<svg width="10" height="17" viewBox="0 0 10 17" fill="none" xmlns="http://www.w3.org/2000/svg">
<path d="M7.19824 11.6602C7.19824 11.1621 7.04004 10.752 6.72363 10.4297C6.40723 10.1016 5.87988 9.80859 5.1416 9.55078C4.40332 9.28711 3.8291 9.04395 3.41895 8.82129C2.05371 8.08887 1.37109 7.00488 1.37109 5.56934C1.37109 4.59668 1.66699 3.79687 2.25879 3.16992C2.85059 2.54297 3.65332 2.1709 4.66699 2.05371V0.137695H6.07324V2.07129C7.09277 2.21777 7.88086 2.65137 8.4375 3.37207C8.99414 4.08691 9.27246 5.01855 9.27246 6.16699H7.14551C7.14551 5.42871 6.97852 4.84863 6.64453 4.42676C6.31641 3.99902 5.86816 3.78516 5.2998 3.78516C4.7373 3.78516 4.29785 3.9375 3.98145 4.24219C3.66504 4.54688 3.50684 4.9834 3.50684 5.55176C3.50684 6.06152 3.66211 6.47168 3.97266 6.78223C4.28906 7.08691 4.82227 7.37695 5.57227 7.65234C6.32227 7.92773 6.91113 8.18262 7.33887 8.41699C7.7666 8.65137 8.12695 8.9209 8.41992 9.22559C8.71289 9.52441 8.93848 9.87012 9.09668 10.2627C9.25488 10.6553 9.33398 11.1152 9.33398 11.6426C9.33398 12.6328 9.0293 13.4355 8.41992 14.0508C7.81641 14.666 6.97266 15.0293 5.88867 15.1406V16.8545H4.49121V15.1494C3.33105 15.0205 2.4375 14.6045 1.81055 13.9014C1.18945 13.1982 0.878906 12.2666 0.878906 11.1064H3.01465C3.01465 11.8447 3.19922 12.416 3.56836 12.8203C3.94336 13.2246 4.4707 13.4268 5.15039 13.4268C5.81836 13.4268 6.3252 13.2656 6.6709 12.9434C7.02246 12.6211 7.19824 12.1934 7.19824 11.6602Z" fill="white"/>
</svg>
