<svg width="24" height="24" viewBox="0 0 24 24" fill="none" xmlns="http://www.w3.org/2000/svg">
<path fill-rule="evenodd" clip-rule="evenodd" d="M23 12C23 18.0751 18.0751 23 12 23C5.92487 23 1 18.0751 1 12C1 5.92487 5.92487 1 12 1C18.0751 1 23 5.92487 23 12ZM24 12C24 18.6274 18.6274 24 12 24C5.37258 24 0 18.6274 0 12C0 5.37258 5.37258 0 12 0C18.6274 0 24 5.37258 24 12ZM13.7236 14.4297C14.04 14.752 14.1982 15.1621 14.1982 15.6602C14.1982 16.1934 14.0225 16.6211 13.6709 16.9434C13.3252 17.2656 12.8184 17.4268 12.1504 17.4268C11.4707 17.4268 10.9434 17.2246 10.5684 16.8203C10.1992 16.416 10.0146 15.8447 10.0146 15.1064H7.87891C7.87891 16.2666 8.18945 17.1982 8.81055 17.9014C9.4375 18.6045 10.3311 19.0205 11.4912 19.1494V20.8545H12.8887V19.1406C13.9727 19.0293 14.8164 18.666 15.4199 18.0508C16.0293 17.4355 16.334 16.6328 16.334 15.6426C16.334 15.1152 16.2549 14.6553 16.0967 14.2627C15.9385 13.8701 15.7129 13.5244 15.4199 13.2256C15.127 12.9209 14.7666 12.6514 14.3389 12.417C13.9111 12.1826 13.3223 11.9277 12.5723 11.6523C11.8223 11.377 11.2891 11.0869 10.9727 10.7822C10.6621 10.4717 10.5068 10.0615 10.5068 9.55176C10.5068 8.9834 10.665 8.54688 10.9814 8.24219C11.2979 7.9375 11.7373 7.78516 12.2998 7.78516C12.8682 7.78516 13.3164 7.99902 13.6445 8.42676C13.9785 8.84863 14.1455 9.42871 14.1455 10.167H16.2725C16.2725 9.01855 15.9941 8.08691 15.4375 7.37207C14.8809 6.65137 14.0928 6.21777 13.0732 6.07129V4.1377H11.667V6.05371C10.6533 6.1709 9.85059 6.54297 9.25879 7.16992C8.66699 7.79688 8.37109 8.59668 8.37109 9.56934C8.37109 11.0049 9.05371 12.0889 10.4189 12.8213C10.8291 13.0439 11.4033 13.2871 12.1416 13.5508C12.8799 13.8086 13.4072 14.1016 13.7236 14.4297Z" fill="white"/>
</svg>
